<?xml version="1.0" encoding="UTF-8" standalone="no"?>
<!DOCTYPE svg PUBLIC "-//W3C//DTD SVG 1.1//EN"
 "http://www.w3.org/Graphics/SVG/1.1/DTD/svg11.dtd">
<!-- Generated by graphviz version 14.1.5 (20260411.2331)
 -->
<!-- Title: A27 Pages: 1 -->
<svg width="322pt" height="65pt"
 viewBox="4.00 4.00 318.00 61.00" xmlns="http://www.w3.org/2000/svg" xmlns:xlink="http://www.w3.org/1999/xlink">
<g id="graph0" class="graph" transform="scale(1 1) rotate(0) translate(14.4 50.4)">
<title>A27</title>
<polygon fill="white" stroke="none" points="-10.8,10.8 -10.8,-46.8 303.55,-46.8 303.55,10.8 -10.8,10.8"/>
<!-- s1 -->
<g id="node1" class="node">
<title>s1</title>
<polygon fill="#fff3cd" stroke="#a07a00" points="54,-36 0,-36 0,0 54,0 54,-36"/>
<text xml:space="preserve" text-anchor="middle" x="27" y="-15.62" font-family="Segoe UI,DejaVu Sans,sans-serif" font-size="10.00">rₜ</text>
</g>
<!-- s2 -->
<g id="node2" class="node">
<title>s2</title>
<polygon fill="#fff3cd" stroke="#a07a00" points="145,-36 91,-36 91,0 145,0 145,-36"/>
<text xml:space="preserve" text-anchor="middle" x="118" y="-15.62" font-family="Segoe UI,DejaVu Sans,sans-serif" font-size="10.00">rₜ₊₁</text>
</g>
<!-- s1&#45;&gt;s2 -->
<g id="edge1" class="edge">
<title>s1&#45;&gt;s2</title>
<path fill="none" stroke="#444444" d="M54.22,-18C62.12,-18 70.94,-18 79.43,-18"/>
<polygon fill="#444444" stroke="#444444" points="79.14,-21.5 89.14,-18 79.14,-14.5 79.14,-21.5"/>
</g>
<!-- sk -->
<g id="node3" class="node">
<title>sk</title>
<polygon fill="#e9ecef" stroke="#495057" points="292.75,-36 238.75,-36 238.75,0 292.75,0 292.75,-36"/>
<text xml:space="preserve" text-anchor="start" x="250.75" y="-16.62" font-family="Segoe UI,DejaVu Sans,sans-serif" font-size="10.00">v</text>
<text xml:space="preserve" text-anchor="start" x="255.25" y="-16.62" font-family="Segoe UI,DejaVu Sans,sans-serif" baseline-shift="sub" font-size="10.00">ψ</text>
<text xml:space="preserve" text-anchor="start" x="261.25" y="-16.62" font-family="Segoe UI,DejaVu Sans,sans-serif" font-size="10.00">(sₜ₊ₖ)</text>
</g>
<!-- s2&#45;&gt;sk -->
<g id="edge2" class="edge">
<title>s2&#45;&gt;sk</title>
<path fill="none" stroke="#444444" d="M145.39,-18C168.3,-18 201.72,-18 227.38,-18"/>
<polygon fill="#444444" stroke="#444444" points="227.04,-21.5 237.04,-18 227.04,-14.5 227.04,-21.5"/>
<text xml:space="preserve" text-anchor="middle" x="191.88" y="-22.2" font-family="Segoe UI,DejaVu Sans,sans-serif" font-size="9.00">A27: bootstrap</text>
</g>
</g>
</svg>
