<?xml version="1.0" encoding="UTF-8" standalone="no"?>
<!DOCTYPE svg PUBLIC "-//W3C//DTD SVG 1.1//EN"
 "http://www.w3.org/Graphics/SVG/1.1/DTD/svg11.dtd">
<!-- Generated by graphviz version 14.1.5 (20260411.2331)
 -->
<!-- Title: R10 Pages: 1 -->
<svg width="307pt" height="90pt"
 viewBox="4.00 4.00 303.00 87.00" xmlns="http://www.w3.org/2000/svg" xmlns:xlink="http://www.w3.org/1999/xlink">
<g id="graph0" class="graph" transform="scale(1 1) rotate(0) translate(14.4 76)">
<title>R10</title>
<polygon fill="white" stroke="none" points="-10.8,10.8 -10.8,-72.4 289,-72.4 289,10.8 -10.8,10.8"/>
<!-- v -->
<g id="node1" class="node">
<title>v</title>
<ellipse fill="#0d6efd" stroke="#0d6efd" cx="18" cy="-30.8" rx="18" ry="18"/>
<text xml:space="preserve" text-anchor="middle" x="18" y="-28.42" font-family="Segoe UI,DejaVu Sans,sans-serif" font-size="10.00" fill="white">v</text>
</g>
<!-- h1a -->
<g id="node2" class="node">
<title>h1a</title>
<ellipse fill="#d1e7dd" stroke="#1c5e3c" cx="96.3" cy="-50.8" rx="10.8" ry="10.8"/>
</g>
<!-- v&#45;&gt;h1a -->
<g id="edge1" class="edge">
<title>v&#45;&gt;h1a</title>
<path fill="none" stroke="#444444" stroke-dasharray="5,2" d="M35.93,-35.24C51.21,-39.24 73.15,-44.99 85.63,-48.27"/>
<text xml:space="preserve" text-anchor="middle" x="60.75" y="-47.38" font-family="Segoe UI,DejaVu Sans,sans-serif" font-size="9.00">t=1</text>
</g>
<!-- h1b -->
<g id="node3" class="node">
<title>h1b</title>
<ellipse fill="#d1e7dd" stroke="#1c5e3c" cx="96.3" cy="-10.8" rx="10.8" ry="10.8"/>
</g>
<!-- v&#45;&gt;h1b -->
<g id="edge2" class="edge">
<title>v&#45;&gt;h1b</title>
<path fill="none" stroke="#444444" stroke-dasharray="5,2" d="M35.93,-26.36C51.21,-22.36 73.15,-16.61 85.63,-13.33"/>
</g>
<!-- h2 -->
<g id="node4" class="node">
<title>h2</title>
<ellipse fill="#bfe0d3" stroke="#1c5e3c" cx="167.4" cy="-10.8" rx="10.8" ry="10.8"/>
</g>
<!-- h1b&#45;&gt;h2 -->
<g id="edge3" class="edge">
<title>h1b&#45;&gt;h2</title>
<path fill="none" stroke="#444444" stroke-dasharray="5,2" d="M107.5,-10.8C120.56,-10.8 143.08,-10.8 156.16,-10.8"/>
<text xml:space="preserve" text-anchor="middle" x="131.85" y="-15" font-family="Segoe UI,DejaVu Sans,sans-serif" font-size="9.00">t=2</text>
</g>
<!-- cap -->
<g id="node5" class="node">
<title>cap</title>
<polygon fill="lightgrey" stroke="none" points="278.2,-17.92 215.2,-17.92 215.2,-3.67 278.2,-3.67 278.2,-17.92"/>
<text xml:space="preserve" text-anchor="start" x="215.2" y="-6.67" font-family="Segoe UI,DejaVu Sans,sans-serif" font-size="10.00">R10 hop rings</text>
</g>
<!-- h2&#45;&gt;cap -->
</g>
</svg>
