<?xml version="1.0" encoding="UTF-8" standalone="no"?>
<!DOCTYPE svg PUBLIC "-//W3C//DTD SVG 1.1//EN"
 "http://www.w3.org/Graphics/SVG/1.1/DTD/svg11.dtd">
<!-- Generated by graphviz version 14.1.5 (20260411.2331)
 -->
<!-- Title: R8 Pages: 1 -->
<svg width="226pt" height="65pt"
 viewBox="4.00 4.00 222.00 61.00" xmlns="http://www.w3.org/2000/svg" xmlns:xlink="http://www.w3.org/1999/xlink">
<g id="graph0" class="graph" transform="scale(1 1) rotate(0) translate(14.4 50.4)">
<title>R8</title>
<polygon fill="white" stroke="none" points="-10.8,10.8 -10.8,-46.8 208.05,-46.8 208.05,10.8 -10.8,10.8"/>
<!-- a -->
<g id="node1" class="node">
<title>a</title>
<polygon fill="#cfe2ff" stroke="#0d6efd" points="54,-36 0,-36 0,0 54,0 54,-36"/>
<text xml:space="preserve" text-anchor="middle" x="27" y="-15.62" font-family="Segoe UI,DejaVu Sans,sans-serif" font-size="10.00">forward</text>
</g>
<!-- b -->
<g id="node2" class="node">
<title>b</title>
<polygon fill="#e9ecef" stroke="#495057" points="197.25,-36 143.25,-36 143.25,0 197.25,0 197.25,-36"/>
<text xml:space="preserve" text-anchor="middle" x="170.25" y="-15.62" font-family="Segoe UI,DejaVu Sans,sans-serif" font-size="10.00">target</text>
</g>
<!-- a&#45;&gt;b -->
<g id="edge1" class="edge">
<title>a&#45;&gt;b</title>
<path fill="none" stroke="#888888" d="M59.14,-18C80.6,-18 109.22,-18 131.9,-18"/>
<polygon fill="#888888" stroke="#888888" points="55.24,-23 55.24,-13 57.24,-13 57.24,-23 55.24,-23"/>
<polyline fill="none" stroke="#888888" points="54.24,-18 59.24,-18"/>
<polygon fill="#888888" stroke="#888888" points="131.64,-21.5 141.64,-18 131.64,-14.5 131.64,-21.5"/>
<text xml:space="preserve" text-anchor="middle" x="98.62" y="-22.2" font-family="Segoe UI,DejaVu Sans,sans-serif" font-size="9.00">R8: stop&#45;grad</text>
</g>
</g>
</svg>
