<?xml version="1.0" encoding="UTF-8" standalone="no"?>
<!DOCTYPE svg PUBLIC "-//W3C//DTD SVG 1.1//EN"
 "http://www.w3.org/Graphics/SVG/1.1/DTD/svg11.dtd">
<!-- Generated by graphviz version 14.1.5 (20260411.2331)
 -->
<!-- Title: A2 Pages: 1 -->
<svg width="211pt" height="65pt"
 viewBox="4.00 4.00 207.00 61.00" xmlns="http://www.w3.org/2000/svg" xmlns:xlink="http://www.w3.org/1999/xlink">
<g id="graph0" class="graph" transform="scale(1 1) rotate(0) translate(14.4 50.4)">
<title>A2</title>
<polygon fill="white" stroke="none" points="-10.8,10.8 -10.8,-46.8 192.55,-46.8 192.55,10.8 -10.8,10.8"/>
<!-- src -->
<g id="node1" class="node">
<title>src</title>
<path fill="#e9ecef" stroke="#495057" d="M54,-32.73C54,-34.53 41.9,-36 27,-36 12.1,-36 0,-34.53 0,-32.73 0,-32.73 0,-3.27 0,-3.27 0,-1.47 12.1,0 27,0 41.9,0 54,-1.47 54,-3.27 54,-3.27 54,-32.73 54,-32.73"/>
<path fill="none" stroke="#495057" d="M54,-32.73C54,-30.92 41.9,-29.45 27,-29.45 12.1,-29.45 0,-30.92 0,-32.73"/>
<text xml:space="preserve" text-anchor="middle" x="27" y="-15.62" font-family="Segoe UI,DejaVu Sans,sans-serif" font-size="10.00">𝒟</text>
</g>
<!-- dst -->
<g id="node2" class="node">
<title>dst</title>
<polygon fill="#e9ecef" stroke="#495057" points="181.75,-36 124.5,-36 124.5,0 181.75,0 181.75,-36"/>
<text xml:space="preserve" text-anchor="start" x="132.5" y="-16.62" font-family="Segoe UI,DejaVu Sans,sans-serif" font-size="10.00">{ xᵢ }</text>
<text xml:space="preserve" text-anchor="start" x="150.5" y="-16.62" font-family="Segoe UI,DejaVu Sans,sans-serif" baseline-shift="sub" font-size="10.00">i=1..M</text>
</g>
<!-- src&#45;&gt;dst -->
<g id="edge1" class="edge">
<title>src&#45;&gt;dst</title>
<path fill="none" stroke="#444444" d="M54.32,-18C71.3,-18 93.68,-18 112.75,-18"/>
<polygon fill="#444444" stroke="#444444" points="112.6,-21.5 122.6,-18 112.6,-14.5 112.6,-21.5"/>
<text xml:space="preserve" text-anchor="middle" x="89.25" y="-22.2" font-family="Segoe UI,DejaVu Sans,sans-serif" font-size="9.00">A2: draw</text>
</g>
</g>
</svg>
